<svg aria-hidden="true" style="position: absolute; width: 0; height: 0; overflow: hidden;" version="1.1" xmlns="http://www.w3.org/2000/svg" xmlns:xlink="http://www.w3.org/1999/xlink">
<defs>
<symbol id="icon-btn-gamburger" viewBox="0 0 47 32">
<path d="M5.818 27.636v-3.879h34.909v3.879zM5.818 17.939v-3.879h34.909v3.879zM5.818 8.242v-3.879h34.909v3.879z"></path>
</symbol>
<symbol id="icon-check-default" viewBox="0 0 32 32">
<path fill="#f4f4fd" style="fill: var(--color1, #f4f4fd)" d="M22.891 8.51c0.346-0.331 0.805-0.514 1.283-0.51s0.934 0.193 1.275 0.53c0.341 0.336 0.538 0.792 0.551 1.272s-0.161 0.945-0.483 1.299l-9.789 12.309c-0.168 0.182-0.371 0.328-0.597 0.43s-0.47 0.156-0.717 0.161c-0.247 0.005-0.493-0.041-0.723-0.134s-0.438-0.232-0.613-0.408l-6.492-6.527c-0.181-0.169-0.326-0.374-0.426-0.601s-0.155-0.472-0.159-0.72c-0.004-0.248 0.041-0.495 0.134-0.725s0.23-0.44 0.405-0.615c0.175-0.176 0.383-0.314 0.612-0.407s0.475-0.139 0.722-0.134c0.247 0.004 0.491 0.059 0.716 0.16s0.429 0.247 0.597 0.429l5.137 5.163 8.521-10.915c0.015-0.019 0.032-0.037 0.049-0.054h-0.002z"></path>
</symbol>
<symbol id="icon-modal-close-icone" viewBox="0 0 32 32">
<path d="M32 3.223l-3.223-3.223-12.777 12.777-12.777-12.777-3.223 3.223 12.777 12.777-12.777 12.777 3.223 3.223 12.777-12.777 12.777 12.777 3.223-3.223-12.777-12.777 12.777-12.777z"></path>
</symbol>
<symbol id="icon-Vector" viewBox="0 0 32 32">
<path d="M32 3.223l-3.223-3.223-12.777 12.777-12.777-12.777-3.223 3.223 12.777 12.777-12.777 12.777 3.223 3.223 12.777-12.777 12.777 12.777 3.223-3.223-12.777-12.777 12.777-12.777z"></path>
</symbol>
<symbol id="icon-left" viewBox="0 0 32 32">
<path d="M12.333 16l12.131-12.065c0.906-0.9 0.906-2.36 0-3.26s-2.375-0.9-3.282 0l-13.654 13.579c-0.483 0.48-0.7 1.118-0.668 1.746-0.032 0.628 0.186 1.266 0.668 1.746l13.654 13.579c0.906 0.9 2.375 0.9 3.282 0s0.906-2.36 0-3.26l-12.131-12.065z"></path>
</symbol>
<symbol id="icon-right" viewBox="0 0 32 32">
<path d="M24.472 14.254l-13.654-13.579c-0.906-0.9-2.375-0.9-3.282 0s-0.906 2.36 0 3.26l12.131 12.065-12.131 12.065c-0.906 0.9-0.906 2.36 0 3.26s2.375 0.9 3.282 0l13.654-13.579c0.483-0.48 0.7-1.118 0.669-1.746 0.032-0.628-0.186-1.266-0.669-1.746z"></path>
</symbol>
<symbol id="icon-tok_tik_icon" viewBox="0 0 32 32">
<path d="M27.835 8c-0.625-0.005-2.23-0.155-3.595-1.405-1.62-1.485-1.745-3.445-1.745-4.010 0-0.275-0.22-0.495-0.49-0.5l-5.155-0.010c-0.275 0-0.5 0.225-0.5 0.5v18.285c-0.005 1.9-1.555 3.445-3.45 3.445-1.9 0-3.45-1.55-3.45-3.45s1.55-3.45 3.45-3.45c0.335 0 0.68 0.050 1.020 0.15 0.15 0.045 0.315 0.015 0.44-0.080s0.2-0.245 0.2-0.4v-4.69c0-0.25-0.18-0.46-0.425-0.495-0.47-0.070-0.935-0.105-1.39-0.105-5.005 0-9.075 4.070-9.075 9.075 0 5 4.070 9.070 9.075 9.070s9.075-4.070 9.075-9.070v-8.75c1.345 1.285 3.15 2.025 5.045 2.025 0.365 0 0.715-0.025 1.040-0.080 0.245-0.040 0.42-0.25 0.42-0.495v-5.060c0.005-0.275-0.215-0.5-0.49-0.5zM27.33 13.115c-0.15 0.010-0.305 0.015-0.46 0.015-2.040 0-3.96-0.99-5.135-2.655-0.125-0.18-0.35-0.255-0.56-0.19s-0.35 0.26-0.35 0.475v10.090c0 4.45-3.625 8.070-8.075 8.070-4.455 0-8.075-3.62-8.075-8.070 0-4.455 3.625-8.075 8.075-8.075 0.265 0 0.54 0.015 0.815 0.040v3.625c-0.22-0.035-0.445-0.050-0.665-0.050-2.455 0-4.45 1.995-4.45 4.45s1.995 4.45 4.45 4.45c2.445 0 4.44-1.99 4.45-4.445v-17.77h3.965l0.205 0.005c0.085 0.975 0.46 2.805 2.045 4.255 1.33 1.22 2.855 1.555 3.765 1.64v4.14z"></path>
</symbol>
<symbol id="icon-facebook_icon-blu" viewBox="0 0 32 32">
<path fill="#3b5999" style="fill: var(--color1, #3b5999)" d="M3.473 0h25.054c1.918 0 3.473 1.555 3.473 3.473v25.054c0 1.918-1.555 3.473-3.473 3.473h-25.054c-1.918 0-3.473-1.555-3.473-3.473v-25.054c0-1.918 1.555-3.473 3.473-3.473z"></path>
<path fill="#fff" style="fill: var(--color2, #fff)" d="M10.419 13.147h3.349v-0.62c0-0.992-0.124-2.233 0-3.225 0.124-2.357 1.364-3.845 4.589-3.969l3.225 0.124v3.473c-1.364 0-3.721-0.496-3.969 1.24v2.977h3.721l-0.372 3.845h-3.349v9.674h-3.845v-9.674l-3.349-0.124v-3.721z"></path>
<path fill="#30487c" style="fill: var(--color3, #30487c)" d="M32 15.876l-10.419-10.419v3.473c-1.364 0-3.721-0.496-3.969 1.24v2.977h3.721l-0.372 3.845h-3.349v9.674h-3.845l5.333 5.333h9.426l3.473-3.473v-12.651z"></path>
</symbol>
<symbol id="icon-facebook" viewBox="0 0 32 32">
<path fill="#f4f4fd" style="fill: var(--color1, #f4f4fd)" d="M21.33 5.314h2.92v-5.088c-1.238-0.144-2.672-0.226-4.125-0.226-0.046 0-0.092 0-0.138 0l0.007-0c-4.212 0-7.094 2.65-7.094 7.52v4.48h-4.65v5.688h4.648v14.312h5.698v-14.31h4.46l0.708-5.69h-5.17v-3.92c0.002-1.644 0.444-2.768 2.736-2.768z"></path>
</symbol>
<symbol id="icon-instagram" viewBox="0 0 32 32">
<path fill="#f4f4fd" style="fill: var(--color1, #f4f4fd)" d="M31.968 9.408c-0.074-1.7-0.35-2.87-0.744-3.882-0.424-1.112-1.053-2.060-1.849-2.839l-0.001-0.001c-0.78-0.791-1.724-1.417-2.778-1.824l-0.054-0.018c-1.020-0.394-2.18-0.67-3.88-0.744-1.716-0.080-2.262-0.1-6.602-0.1-4.346 0-4.89 0.020-6.596 0.094-1.7 0.074-2.868 0.35-3.88 0.744-1.112 0.424-2.060 1.053-2.839 1.849l-0.001 0.001c-0.792 0.78-1.419 1.724-1.826 2.778l-0.018 0.054c-0.394 1.020-0.668 2.18-0.744 3.88-0.080 1.714-0.1 2.26-0.1 6.602 0 4.346 0.020 4.89 0.094 6.596 0.074 1.7 0.35 2.87 0.744 3.882 0.406 1.076 1.038 2.038 1.85 2.838 0.8 0.812 1.77 1.444 2.832 1.844 1.020 0.394 2.18 0.67 3.882 0.744 1.706 0.076 2.25 0.094 6.596 0.094 4.344 0 4.888-0.020 6.594-0.094 1.7-0.074 2.87-0.35 3.882-0.744 2.157-0.85 3.832-2.525 4.663-4.627l0.019-0.055c0.394-1.020 0.67-2.18 0.744-3.882 0.076-1.706 0.094-2.25 0.094-6.596 0-4.344-0.006-4.888-0.080-6.594zM29.088 22.472c-0.070 1.564-0.332 2.408-0.552 2.97-0.551 1.4-1.638 2.488-3.002 3.027l-0.036 0.013c-0.562 0.218-1.412 0.48-2.968 0.548-1.688 0.076-2.194 0.094-6.464 0.094s-4.782-0.020-6.464-0.094c-1.564-0.068-2.408-0.33-2.97-0.55-0.721-0.269-1.335-0.676-1.837-1.193l-0.001-0.001c-0.516-0.504-0.923-1.118-1.183-1.804l-0.011-0.034c-0.22-0.562-0.48-1.412-0.55-2.968-0.074-1.688-0.094-2.196-0.094-6.464 0-4.27 0.020-4.782 0.094-6.464 0.070-1.564 0.332-2.408 0.55-2.97 0.256-0.694 0.664-1.324 1.2-1.838 0.52-0.532 1.144-0.938 1.84-1.194 0.56-0.22 1.412-0.48 2.968-0.55 1.688-0.074 2.194-0.094 6.464-0.094 4.276 0 4.78 0.020 6.464 0.094 1.562 0.070 2.406 0.332 2.968 0.55 0.694 0.256 1.326 0.662 1.84 1.194 0.53 0.52 0.936 1.144 1.192 1.84 0.22 0.56 0.482 1.41 0.55 2.968 0.076 1.688 0.094 2.194 0.094 6.464s-0.018 4.77-0.092 6.456z"></path>
<path fill="#f4f4fd" style="fill: var(--color1, #f4f4fd)" d="M16.060 7.782c-4.462 0.102-8.041 3.743-8.041 8.22s3.578 8.118 8.031 8.22l0.009 0c4.462-0.102 8.041-3.743 8.041-8.22s-3.578-8.118-8.031-8.22l-0.009-0zM16.060 21.336c-2.946 0-5.334-2.388-5.334-5.334s2.388-5.334 5.334-5.334v0c2.946 0 5.334 2.388 5.334 5.334s-2.388 5.334-5.334 5.334v0zM26.524 7.458c0 1.060-0.86 1.92-1.92 1.92s-1.92-0.86-1.92-1.92v0c0-1.060 0.86-1.92 1.92-1.92s1.92 0.86 1.92 1.92v0z"></path>
</symbol>
<symbol id="icon-Instagram_icon-1" viewBox="0 0 32 32">
<path d="M26.461 7.459c0 1.060-0.86 1.92-1.92 1.92s-1.92-0.86-1.92-1.92v0c0-1.060 0.86-1.92 1.92-1.92s1.92 0.86 1.92 1.92v0zM16 21.333c-2.945 0-5.333-2.388-5.333-5.333s2.388-5.333 5.333-5.333c2.945 0 5.333 2.388 5.333 5.333s-2.388 5.333-5.333 5.333zM16 7.784c-4.538 0-8.216 3.679-8.216 8.216s3.678 8.216 8.216 8.216c4.538 0 8.216-3.678 8.216-8.216s-3.678-8.216-8.216-8.216zM16 2.883c4.272 0 4.778 0.016 6.465 0.093 1.56 0.071 2.407 0.332 2.971 0.551 0.747 0.29 1.28 0.637 1.84 1.197s0.907 1.093 1.197 1.84c0.219 0.564 0.48 1.411 0.551 2.971 0.077 1.687 0.093 2.193 0.093 6.465s-0.016 4.778-0.093 6.465c-0.071 1.56-0.332 2.407-0.551 2.971-0.29 0.747-0.637 1.28-1.197 1.84s-1.093 0.907-1.84 1.197c-0.564 0.219-1.411 0.48-2.971 0.551-1.687 0.077-2.193 0.093-6.465 0.093s-4.779-0.016-6.465-0.093c-1.56-0.071-2.407-0.332-2.971-0.551-0.747-0.29-1.28-0.637-1.84-1.197s-0.907-1.093-1.197-1.84c-0.219-0.564-0.48-1.411-0.551-2.971-0.077-1.687-0.093-2.193-0.093-6.465s0.016-4.778 0.093-6.465c0.071-1.56 0.332-2.407 0.551-2.971 0.29-0.747 0.637-1.28 1.197-1.84s1.093-0.907 1.84-1.197c0.564-0.219 1.411-0.48 2.971-0.551 1.687-0.077 2.193-0.093 6.465-0.093zM16 0c-4.345 0-4.89 0.018-6.597 0.096-1.703 0.078-2.866 0.348-3.884 0.744-1.052 0.409-1.944 0.956-2.834 1.846s-1.437 1.782-1.845 2.834c-0.396 1.018-0.666 2.181-0.744 3.884-0.078 1.707-0.096 2.252-0.096 6.597s0.018 4.89 0.096 6.597c0.078 1.703 0.348 2.866 0.744 3.884 0.409 1.052 0.956 1.945 1.845 2.834s1.782 1.436 2.834 1.846c1.018 0.395 2.181 0.666 3.884 0.744 1.707 0.078 2.252 0.096 6.597 0.096s4.89-0.018 6.597-0.096c1.703-0.078 2.866-0.348 3.884-0.744 1.052-0.409 1.945-0.956 2.834-1.846s1.436-1.782 1.846-2.834c0.395-1.018 0.666-2.181 0.744-3.884 0.078-1.706 0.096-2.252 0.096-6.597s-0.018-4.89-0.096-6.597c-0.078-1.703-0.348-2.866-0.744-3.884-0.409-1.052-0.956-1.944-1.846-2.834s-1.782-1.437-2.834-1.845c-1.018-0.396-2.181-0.666-3.884-0.744-1.706-0.078-2.252-0.096-6.597-0.096z"></path>
</symbol>
<symbol id="icon-phone-call" viewBox="0 0 32 32">
<path d="M31.856 25.506l-0.159-0.48c-0.377-1.121-1.614-2.291-2.75-2.599l-4.204-1.148c-1.14-0.31-2.766 0.107-3.601 0.941l-1.522 1.522c-5.53-1.494-9.866-5.83-11.358-11.359l1.522-1.522c0.834-0.834 1.251-2.458 0.941-3.598l-1.146-4.206c-0.31-1.138-1.482-2.374-2.601-2.748l-0.48-0.161c-1.121-0.373-2.72 0.004-3.554 0.838l-2.276 2.278c-0.407 0.404-0.666 1.561-0.666 1.566-0.080 7.226 2.754 14.188 7.865 19.3 5.099 5.099 12.035 7.928 19.24 7.867 0.038 0 1.228-0.256 1.635-0.66l2.276-2.276c0.834-0.834 1.211-2.433 0.838-3.554z"></path>
</symbol>
<symbol id="icon-viber_logo" viewBox="0 0 32 32">
<path fill="#665ca7" style="fill: var(--color1, #665ca7)" d="M0 0h32v32h-32v-32z"></path>
<path fill="none" stroke="#fff" style="stroke: var(--color2, #fff)" stroke-linejoin="miter" stroke-linecap="round" stroke-miterlimit="4" stroke-width="0.625" d="M16.813 11.625c0.019-0.001 0.041-0.001 0.064-0.001 1.036 0 1.875 0.839 1.875 1.875 0 0.022-0 0.045-0.001 0.067l0-0.003M16.375 9.938c0.001 0 0.003 0 0.004 0 2.209 0 4 1.791 4 4 0 0.066-0.002 0.132-0.005 0.197l0-0.009M15.813 8.313c0.042-0.001 0.091-0.002 0.141-0.002 3.348 0 6.063 2.714 6.063 6.063 0 0.155-0.006 0.308-0.017 0.459l0.001-0.020"></path>
<path fill="#fff" style="fill: var(--color2, #fff)" d="M5.938 14.5c0 4.875 0.875 5.938 2.25 7.375 0.438 0.438 2 1.188 2.375 1.188v4.313c0 0.25 0.25 0.438 0.5 0.188l3.313-3.938 1.625 0.063c9 0 10.063-3.5 10.063-9.188s-1.063-9.188-10.063-9.188c-9 0-10.063 3.5-10.063 9.188zM4.063 14.5c0-7.875 3.438-11.063 11.938-11.063s11.938 3.188 11.938 11.063-3.438 11.063-11.938 11.063c-0.625 0-1.125 0-2-0.125l-2.375 2.688c-0.438 0.5-1.75 0.688-1.75-0.813v-2.625c-0.375 0-1.25-0.375-2.438-1.125-1.188-0.813-3.375-2.75-3.375-9.063zM18 17.125q0.625-0.813 1.5-0.25l2.25 1.688q0.5 0.625-0.438 1.75t-1.75 0.938q-3.313-0.75-6.375-3.75t-3.813-6.5q0-1.25 1.563-2.125 0.813-0.563 1.375 0.313l1.563 2.188q0.375 0.75-0.438 1.375c-2.438 0.938 3.188 7 4.563 4.375z"></path>
</symbol>
<symbol id="icon-twitter" viewBox="0 0 32 32">
<path fill="#f4f4fd" style="fill: var(--color1, #f4f4fd)" d="M32 6.078c-1.1 0.494-2.376 0.858-3.712 1.029l-0.068 0.007c1.36-0.817 2.381-2.078 2.873-3.58l0.013-0.046c-1.197 0.723-2.591 1.274-4.076 1.574l-0.084 0.014c-1.2-1.279-2.901-2.076-4.788-2.076-3.623 0-6.56 2.937-6.56 6.56v0c0 0.52 0.044 1.020 0.152 1.496-5.468-0.276-10.278-2.878-13.495-6.828l-0.027-0.034c-0.563 0.949-0.895 2.091-0.895 3.311 0 2.264 1.145 4.261 2.888 5.442l0.023 0.015c-1.092-0.030-2.109-0.325-2.997-0.823l0.033 0.017v0.072c0.004 3.164 2.237 5.806 5.213 6.438l0.043 0.008c-0.501 0.137-1.075 0.216-1.669 0.216-0.018 0-0.036-0-0.054-0l0.003 0c-0.031 0.001-0.067 0.001-0.103 0.001-0.403 0-0.796-0.041-1.176-0.119l0.037 0.006c0.873 2.624 3.273 4.496 6.121 4.57l0.009 0c-2.214 1.744-5.044 2.798-8.12 2.798-0.005 0-0.010 0-0.015 0h0.001c-0.538 0-1.054-0.024-1.57-0.090 2.826 1.846 6.287 2.944 10.004 2.944 0.021 0 0.042-0 0.063-0h-0.003c12.072 0 18.672-10 18.672-18.668 0-0.29-0.010-0.57-0.024-0.848 1.299-0.937 2.391-2.066 3.258-3.359l0.030-0.047z"></path>
</symbol>
<symbol id="icon-subscribe-list" viewBox="0 0 32 32">
<path fill="#fff" style="fill: var(--color1, #fff)" d="M32 2.667l-32 15 10.227 3.156 15.773-12.323-11.998 13.488 0.010 0.003-0.012-0.003v7.345l5.735-5.576 7.265 2.242 5-23.333z"></path>
</symbol>
<symbol id="icon-envelop" viewBox="0 0 32 32">
<path d="M29 4h-26c-1.65 0-3 1.35-3 3v20c0 1.65 1.35 3 3 3h26c1.65 0 3-1.35 3-3v-20c0-1.65-1.35-3-3-3zM12.461 17.199l-8.461 6.59v-15.676l8.461 9.086zM5.512 8h20.976l-10.488 7.875-10.488-7.875zM12.79 17.553l3.21 3.447 3.21-3.447 6.58 8.447h-19.579l6.58-8.447zM19.539 17.199l8.461-9.086v15.676l-8.461-6.59z"></path>
</symbol>
<symbol id="icon-menu" viewBox="0 0 32 32">
<path d="M4 24v-2.667h24v2.667zM4 17.333v-2.667h24v2.667zM4 10.667v-2.667h24v2.667z"></path>
</symbol>
<symbol id="icon-close-btn" viewBox="0 0 32 32">
<path d="M32 3.223l-3.223-3.223-12.777 12.777-12.777-12.777-3.223 3.223 12.777 12.777-12.777 12.777 3.223 3.223 12.777-12.777 12.777 12.777 3.223-3.223-12.777-12.777 12.777-12.777z"></path>
</symbol>
<symbol id="icon-name-black" viewBox="0 0 32 32">
<path d="M16 16c2.947 0 5.333-2.387 5.333-5.333s-2.387-5.333-5.333-5.333c-2.947 0-5.333 2.387-5.333 5.333s2.387 5.333 5.333 5.333zM16 18.667c-3.56 0-10.667 1.787-10.667 5.333v1.333c0 0.733 0.6 1.333 1.333 1.333h18.667c0.733 0 1.333-0.6 1.333-1.333v-1.333c0-3.547-7.107-5.333-10.667-5.333z"></path>
</symbol>
<symbol id="icon-email-black" viewBox="0 0 24 32">
<path d="M20 8h-16c-1.1 0-1.99 0.9-1.99 2l-0.010 12c0 1.1 0.9 2 2 2h16c1.1 0 2-0.9 2-2v-12c0-1.1-0.9-2-2-2zM19.6 12.25l-7.070 4.42c-0.32 0.2-0.74 0.2-1.060 0l-7.070-4.42c-0.25-0.16-0.4-0.43-0.4-0.72 0-0.67 0.73-1.070 1.3-0.72l6.7 4.19 6.7-4.19c0.57-0.35 1.3 0.050 1.3 0.72 0 0.29-0.15 0.56-0.4 0.72z"></path>
</symbol>
<symbol id="icon-phone-black" viewBox="0 0 24 32">
<path d="M19.635 18.487l-2.451-0.28c-0.589-0.067-1.167 0.135-1.582 0.55l-1.775 1.775c-2.731-1.389-4.969-3.618-6.359-6.359l1.785-1.785c0.415-0.415 0.618-0.994 0.55-1.582l-0.28-2.432c-0.116-0.975-0.936-1.708-1.92-1.708h-1.669c-1.090 0-1.997 0.907-1.93 1.997 0.511 8.24 7.102 14.821 15.332 15.332 1.090 0.068 1.997-0.839 1.997-1.93v-1.669c0.010-0.975-0.724-1.795-1.698-1.911z"></path>
</symbol>
<symbol id="icon-mobile" viewBox="0 0 32 32">
<path d="M23 0h-14c-1.65 0-3 1.35-3 3v26c0 1.65 1.35 3 3 3h14c1.65 0 3-1.35 3-3v-26c0-1.65-1.35-3-3-3zM12 1.5h8v1h-8v-1zM16 30c-1.105 0-2-0.895-2-2s0.895-2 2-2 2 0.895 2 2-0.895 2-2 2zM24 24h-16v-20h16v20z"></path>
</symbol>
</defs>
</svg>
